<svg width="776" height="582" xmlns="http://www.w3.org/2000/svg" xmlns:xlink="http://www.w3.org/1999/xlink" overflow="hidden"><defs><clipPath id="clip0"><rect x="55" y="69" width="776" height="582"/></clipPath><clipPath id="clip1"><rect x="56" y="70" width="774" height="580"/></clipPath><clipPath id="clip2"><rect x="56" y="70" width="774" height="581"/></clipPath><clipPath id="clip3"><rect x="56" y="70" width="774" height="581"/></clipPath><clipPath id="clip4"><rect x="56" y="70" width="774" height="581"/></clipPath></defs><g clip-path="url(#clip0)" transform="translate(-55 -69)"><g clip-path="url(#clip1)"><g clip-path="url(#clip2)"><g clip-path="url(#clip3)"><g clip-path="url(#clip4)"><path d="M0 0 773.333 0 773.333 580 0 580Z" fill="#FFFFFF" transform="matrix(1.00086 0 0 1 56 70)"/></g><path d="M0 0 773.333 0 773.333 580 0 580Z" fill="#FFFFFF" transform="matrix(1.00086 0 0 1 56 70)"/><path d="M100.81 516.476 700.143 516.476 700.143 42.8095 100.81 42.8095Z" fill="#FFFFFF" transform="matrix(1.00086 0 0 1 56 70)"/><path d="M100.81 516.476 700.143 516.476" stroke="#262626" stroke-width="0.920681" stroke-linecap="square" stroke-linejoin="round" stroke-miterlimit="10" fill="none" transform="matrix(1.00086 0 0 1 56 70)"/><path d="M100.81 42.8095 700.143 42.8095" stroke="#262626" stroke-width="0.920681" stroke-linecap="square" stroke-linejoin="round" stroke-miterlimit="10" fill="none" transform="matrix(1.00086 0 0 1 56 70)"/><path d="M186.429 516.476 186.429 510.483" stroke="#262626" stroke-width="0.920681" stroke-linecap="square" stroke-linejoin="round" stroke-miterlimit="10" fill="none" transform="matrix(1.00086 0 0 1 56 70)"/><path d="M293.452 516.476 293.452 510.483" stroke="#262626" stroke-width="0.920681" stroke-linecap="square" stroke-linejoin="round" stroke-miterlimit="10" fill="none" transform="matrix(1.00086 0 0 1 56 70)"/><path d="M400.476 516.476 400.476 510.483" stroke="#262626" stroke-width="0.920681" stroke-linecap="square" stroke-linejoin="round" stroke-miterlimit="10" fill="none" transform="matrix(1.00086 0 0 1 56 70)"/><path d="M507.5 516.476 507.5 510.483" stroke="#262626" stroke-width="0.920681" stroke-linecap="square" stroke-linejoin="round" stroke-miterlimit="10" fill="none" transform="matrix(1.00086 0 0 1 56 70)"/><path d="M614.524 516.476 614.524 510.483" stroke="#262626" stroke-width="0.920681" stroke-linecap="square" stroke-linejoin="round" stroke-miterlimit="10" fill="none" transform="matrix(1.00086 0 0 1 56 70)"/><path d="M186.429 42.8095 186.429 48.8029" stroke="#262626" stroke-width="0.920681" stroke-linecap="square" stroke-linejoin="round" stroke-miterlimit="10" fill="none" transform="matrix(1.00086 0 0 1 56 70)"/><path d="M293.452 42.8095 293.452 48.8029" stroke="#262626" stroke-width="0.920681" stroke-linecap="square" stroke-linejoin="round" stroke-miterlimit="10" fill="none" transform="matrix(1.00086 0 0 1 56 70)"/><path d="M400.476 42.8095 400.476 48.8029" stroke="#262626" stroke-width="0.920681" stroke-linecap="square" stroke-linejoin="round" stroke-miterlimit="10" fill="none" transform="matrix(1.00086 0 0 1 56 70)"/><path d="M507.5 42.8095 507.5 48.8029" stroke="#262626" stroke-width="0.920681" stroke-linecap="square" stroke-linejoin="round" stroke-miterlimit="10" fill="none" transform="matrix(1.00086 0 0 1 56 70)"/><path d="M614.524 42.8095 614.524 48.8029" stroke="#262626" stroke-width="0.920681" stroke-linecap="square" stroke-linejoin="round" stroke-miterlimit="10" fill="none" transform="matrix(1.00086 0 0 1 56 70)"/><text fill="#262626" font-family="Arial,Arial_MSFontService,sans-serif" font-weight="400" font-size="13" transform="matrix(1.38214 0 0 1.38095 237.061 613)">5</text><text fill="#262626" font-family="Arial,Arial_MSFontService,sans-serif" font-weight="400" font-size="13" transform="matrix(1.38214 0 0 1.38095 339.339 613)">10</text><text fill="#262626" font-family="Arial,Arial_MSFontService,sans-serif" font-weight="400" font-size="13" transform="matrix(1.38214 0 0 1.38095 446.455 613)">15</text><text fill="#262626" font-family="Arial,Arial_MSFontService,sans-serif" font-weight="400" font-size="13" transform="matrix(1.38214 0 0 1.38095 553.571 613)">20</text><text fill="#262626" font-family="Arial,Arial_MSFontService,sans-serif" font-weight="400" font-size="13" transform="matrix(1.38214 0 0 1.38095 660.688 613)">25</text><text fill="#262626" font-family="Arial,Arial_MSFontService,sans-serif" font-weight="400" font-size="15" transform="matrix(1.38214 0 0 1.38095 319.989 640)">Number of sampled force data</text><path d="M100.81 516.476 100.81 42.8095" stroke="#262626" stroke-width="0.920681" stroke-linecap="square" stroke-linejoin="round" stroke-miterlimit="10" fill="none" transform="matrix(1.00086 0 0 1 56 70)"/><path d="M700.143 516.476 700.143 42.8095" stroke="#262626" stroke-width="0.920681" stroke-linecap="square" stroke-linejoin="round" stroke-miterlimit="10" fill="none" transform="matrix(1.00086 0 0 1 56 70)"/><path d="M100.81 516.476 106.803 516.476" stroke="#262626" stroke-width="0.920681" stroke-linecap="square" stroke-linejoin="round" stroke-miterlimit="10" fill="none" transform="matrix(1.00086 0 0 1 56 70)"/><path d="M100.81 457.268 106.803 457.268" stroke="#262626" stroke-width="0.920681" stroke-linecap="square" stroke-linejoin="round" stroke-miterlimit="10" fill="none" transform="matrix(1.00086 0 0 1 56 70)"/><path d="M100.81 398.06 106.803 398.06" stroke="#262626" stroke-width="0.920681" stroke-linecap="square" stroke-linejoin="round" stroke-miterlimit="10" fill="none" transform="matrix(1.00086 0 0 1 56 70)"/><path d="M100.81 338.851 106.803 338.851" stroke="#262626" stroke-width="0.920681" stroke-linecap="square" stroke-linejoin="round" stroke-miterlimit="10" fill="none" transform="matrix(1.00086 0 0 1 56 70)"/><path d="M100.81 279.643 106.803 279.643" stroke="#262626" stroke-width="0.920681" stroke-linecap="square" stroke-linejoin="round" stroke-miterlimit="10" fill="none" transform="matrix(1.00086 0 0 1 56 70)"/><path d="M100.81 220.435 106.803 220.435" stroke="#262626" stroke-width="0.920681" stroke-linecap="square" stroke-linejoin="round" stroke-miterlimit="10" fill="none" transform="matrix(1.00086 0 0 1 56 70)"/><path d="M100.81 161.226 106.803 161.226" stroke="#262626" stroke-width="0.920681" stroke-linecap="square" stroke-linejoin="round" stroke-miterlimit="10" fill="none" transform="matrix(1.00086 0 0 1 56 70)"/><path d="M100.81 102.018 106.803 102.018" stroke="#262626" stroke-width="0.920681" stroke-linecap="square" stroke-linejoin="round" stroke-miterlimit="10" fill="none" transform="matrix(1.00086 0 0 1 56 70)"/><path d="M100.81 42.8095 106.803 42.8095" stroke="#262626" stroke-width="0.920681" stroke-linecap="square" stroke-linejoin="round" stroke-miterlimit="10" fill="none" transform="matrix(1.00086 0 0 1 56 70)"/><path d="M700.143 516.476 694.15 516.476" stroke="#262626" stroke-width="0.920681" stroke-linecap="square" stroke-linejoin="round" stroke-miterlimit="10" fill="none" transform="matrix(1.00086 0 0 1 56 70)"/><path d="M700.143 457.268 694.15 457.268" stroke="#262626" stroke-width="0.920681" stroke-linecap="square" stroke-linejoin="round" stroke-miterlimit="10" fill="none" transform="matrix(1.00086 0 0 1 56 70)"/><path d="M700.143 398.06 694.15 398.06" stroke="#262626" stroke-width="0.920681" stroke-linecap="square" stroke-linejoin="round" stroke-miterlimit="10" fill="none" transform="matrix(1.00086 0 0 1 56 70)"/><path d="M700.143 338.851 694.15 338.851" stroke="#262626" stroke-width="0.920681" stroke-linecap="square" stroke-linejoin="round" stroke-miterlimit="10" fill="none" transform="matrix(1.00086 0 0 1 56 70)"/><path d="M700.143 279.643 694.15 279.643" stroke="#262626" stroke-width="0.920681" stroke-linecap="square" stroke-linejoin="round" stroke-miterlimit="10" fill="none" transform="matrix(1.00086 0 0 1 56 70)"/><path d="M700.143 220.435 694.15 220.435" stroke="#262626" stroke-width="0.920681" stroke-linecap="square" stroke-linejoin="round" stroke-miterlimit="10" fill="none" transform="matrix(1.00086 0 0 1 56 70)"/><path d="M700.143 161.226 694.15 161.226" stroke="#262626" stroke-width="0.920681" stroke-linecap="square" stroke-linejoin="round" stroke-miterlimit="10" fill="none" transform="matrix(1.00086 0 0 1 56 70)"/><path d="M700.143 102.018 694.15 102.018" stroke="#262626" stroke-width="0.920681" stroke-linecap="square" stroke-linejoin="round" stroke-miterlimit="10" fill="none" transform="matrix(1.00086 0 0 1 56 70)"/><path d="M700.143 42.8095 694.15 42.8095" stroke="#262626" stroke-width="0.920681" stroke-linecap="square" stroke-linejoin="round" stroke-miterlimit="10" fill="none" transform="matrix(1.00086 0 0 1 56 70)"/><text fill="#262626" font-family="Arial,Arial_MSFontService,sans-serif" font-weight="400" font-size="13" transform="matrix(1.38214 0 0 1.38095 138.468 594)">0</text><text fill="#262626" font-family="Arial,Arial_MSFontService,sans-serif" font-weight="400" font-size="13" transform="matrix(1.38214 0 0 1.38095 138.468 535)">5</text><text fill="#262626" font-family="Arial,Arial_MSFontService,sans-serif" font-weight="400" font-size="13" transform="matrix(1.38214 0 0 1.38095 128.793 476)">10</text><text fill="#262626" font-family="Arial,Arial_MSFontService,sans-serif" font-weight="400" font-size="13" transform="matrix(1.38214 0 0 1.38095 128.793 416)">15</text><text fill="#262626" font-family="Arial,Arial_MSFontService,sans-serif" font-weight="400" font-size="13" transform="matrix(1.38214 0 0 1.38095 128.793 357)">20</text><text fill="#262626" font-family="Arial,Arial_MSFontService,sans-serif" font-weight="400" font-size="13" transform="matrix(1.38214 0 0 1.38095 128.793 298)">25</text><text fill="#262626" font-family="Arial,Arial_MSFontService,sans-serif" font-weight="400" font-size="13" transform="matrix(1.38214 0 0 1.38095 128.793 239)">30</text><text fill="#262626" font-family="Arial,Arial_MSFontService,sans-serif" font-weight="400" font-size="13" transform="matrix(1.38214 0 0 1.38095 128.793 180)">35</text><text fill="#262626" font-family="Arial,Arial_MSFontService,sans-serif" font-weight="400" font-size="13" transform="matrix(1.38214 0 0 1.38095 128.793 120)">40</text><text fill="#262626" font-family="Arial,Arial_MSFontService,sans-serif" font-weight="400" font-size="15" transform="matrix(8.46318e-17 -1.38095 1.38214 8.45589e-17 117.736 390)">Force</text><text fill="#262626" font-family="Arial,Arial_MSFontService,sans-serif" font-weight="400" font-size="15" transform="matrix(8.46318e-17 -1.38095 1.38214 8.45589e-17 117.736 337)">(</text><text fill="#262626" font-family="Arial,Arial_MSFontService,sans-serif" font-weight="400" font-size="15" transform="matrix(8.46318e-17 -1.38095 1.38214 8.45589e-17 117.736 330)">N</text><text fill="#262626" font-family="Arial,Arial_MSFontService,sans-serif" font-weight="400" font-size="15" transform="matrix(8.46318e-17 -1.38095 1.38214 8.45589e-17 117.736 317)">)</text><path d="M100.81 516.476 122.214 516.476 143.619 516.476 165.024 516.476 186.429 515.41 207.833 501.911 229.238 484.386 250.643 457.149 272.048 421.032 293.452 385.507 314.857 347.496 336.262 300.129 357.667 251.342 379.071 203.975 400.476 161.464 421.881 116.228 443.286 97.6365 464.69 291.722 486.095 401.73 507.5 428.612 528.905 434.651 550.31 434.651 571.714 434.177 593.119 434.177 614.524 433.939 635.929 433.585 657.333 433.466 678.738 433.585 700.143 433.23" stroke="#0072BD" stroke-width="0.920681" stroke-linejoin="round" stroke-miterlimit="10" fill="none" fill-rule="evenodd" transform="matrix(1.00086 0 0 1 56 70)"/></g></g></g><path d="M500 130 500 590" stroke="#767171" stroke-width="2" stroke-linejoin="round" stroke-miterlimit="10" stroke-dasharray="8 6" fill="none" fill-rule="evenodd"/><path d="M586 130 586 590" stroke="#767171" stroke-width="2" stroke-linejoin="round" stroke-miterlimit="10" stroke-dasharray="8 6" fill="none" fill-rule="evenodd"/><path d="M0.439807-0.237845 161.669 297.897 160.79 298.373-0.439807 0.237845ZM164.114 295.06 164.401 304 157.077 298.866Z" fill="#767171" transform="matrix(1 0 0 -1 270.5 502.5)"/><text font-family="Arial,Arial_MSFontService,sans-serif" font-weight="400" font-size="19" transform="translate(251.723 157)">Force Increasing</text><path d="M0 3C-7.6388e-16 1.34315 1.34315 0 3 0 4.65685 -7.6388e-16 6 1.34315 6 3 6 4.65685 4.65685 6 3 6 1.34315 6-1.14582e-15 4.65685 0 3Z" stroke="#0D0D0D" stroke-width="2.66667" stroke-linejoin="round" stroke-miterlimit="10" fill="#0D0D0D" fill-rule="evenodd" transform="matrix(-1 0 0 1 501.5 166.5)"/><path d="M0.489853-0.100218 22.9537 109.701 21.974 109.901-0.489853 0.100218ZM26.1154 107.693 23.8001 116.332 18.2778 109.297Z" transform="matrix(1 0 0 -1 473.5 290.833)"/><path d="M525.99 206.4 569.133 417.093 568.153 417.294 525.01 206.6ZM572.294 415.085 569.98 423.725 564.457 416.69Z" fill="#767171"/><path d="M606.5 470 731.233 470 731.233 471 606.5 471ZM729.9 466.5 737.9 470.5 729.9 474.5Z" fill="#767171"/><text font-family="Arial,Arial_MSFontService,sans-serif" font-weight="400" font-size="19" transform="translate(431.333 301)">Triggered</text><text font-family="Arial,Arial_MSFontService,sans-serif" font-weight="400" font-size="19" transform="translate(436.5 324)">force</text><text font-family="Arial,Arial_MSFontService,sans-serif" font-weight="400" font-size="19" transform="translate(512.156 147)">MFLEE</text><text font-family="Arial,Arial_MSFontService,sans-serif" font-weight="400" font-size="19" transform="translate(503.836 170)">Triggered</text><text font-family="Arial,Arial_MSFontService,sans-serif" font-weight="400" font-size="19" transform="translate(626.683 146)">Force from</text><text font-family="Arial,Arial_MSFontService,sans-serif" font-weight="400" font-size="19" transform="translate(600.683 169)">weight of MFLEE</text><path d="M281.5 315.5C281.5 305.007 289.783 296.5 300 296.5 310.217 296.5 318.5 305.007 318.5 315.5 318.5 325.993 310.217 334.5 300 334.5 289.783 334.5 281.5 325.993 281.5 315.5Z" stroke="#989595" stroke-width="2.66667" stroke-linejoin="round" stroke-miterlimit="10" fill="none" fill-rule="evenodd"/><text fill="#7F7F7F" font-family="Microsoft YaHei,Microsoft YaHei_MSFontService,sans-serif" font-weight="400" font-size="24" transform="translate(292.418 323)">1</text><path d="M542.5 260.5C542.5 250.007 551.007 241.5 561.5 241.5 571.993 241.5 580.5 250.007 580.5 260.5 580.5 270.993 571.993 279.5 561.5 279.5 551.007 279.5 542.5 270.993 542.5 260.5Z" stroke="#989595" stroke-width="2.66667" stroke-linejoin="round" stroke-miterlimit="10" fill="none" fill-rule="evenodd"/><text fill="#7F7F7F" font-family="Microsoft YaHei,Microsoft YaHei_MSFontService,sans-serif" font-weight="400" font-size="24" transform="translate(553.702 268)">2</text><path d="M659.5 430.5C659.5 420.007 668.007 411.5 678.5 411.5 688.993 411.5 697.5 420.007 697.5 430.5 697.5 440.993 688.993 449.5 678.5 449.5 668.007 449.5 659.5 440.993 659.5 430.5Z" stroke="#989595" stroke-width="2.66667" stroke-linejoin="round" stroke-miterlimit="10" fill="none" fill-rule="evenodd"/><text fill="#7F7F7F" font-family="Microsoft YaHei,Microsoft YaHei_MSFontService,sans-serif" font-weight="400" font-size="24" transform="translate(671.063 439)">3</text></g></svg>